# xmcd
#
# Track frame offsets: 
#        150
#        11235
#        29707
#        44760
#        63266
#        80760
#        97994
#        117060
#        136935
#        150210
#        165360
#        184260
#        216960
#        231210
#        247155
#        272645
#        298335
#
# Disc length: 4023 seconds
#
# Revision: 0
# Processed by: cddbd v1.5.1PL0 Copyright (c) Steve Scherf et al.
# Submitted via: ExactAudioCopy v0.95b2
#
DISCID=f60fb511
DTITLE=Bodo Kolbe - gor net debei
DYEAR=1999
DGENRE=National Folk
TTITLE0=On the Ried Road
TTITLE1=Opel GT
TTITLE2=De Merfeller Dood
TTITLE3=Fernseh Blues
TTITLE4=Lewwer, duck disch
TTITLE5=Vorm Door Steher Rag
TTITLE6=Vorm Door Steher Rag - Moten Swing
TTITLE7=Die Köhlerliesel
TTITLE8=De 'Kumm doch, goldisch Mama, mit mer haam in's Ried' Blues
TTITLE9=Puulloch Blues
TTITLE10=Es kimmt net uff die Greeß oo
TTITLE11=Nordweststadt Blues
TTITLE12=Senkrescht wie die Spaschel
TTITLE13=Senkrescht wie die Spaschel
TTITLE14=B44
TTITLE15=Opel GT
TTITLE16=Meine Mama ist immer so müde
EXTD=
EXTT0=
EXTT1=
EXTT2=
EXTT3=
EXTT4=
EXTT5=
EXTT6=
EXTT7=
EXTT8=
EXTT9=
EXTT10=
EXTT11=
EXTT12=
EXTT13=
EXTT14=
EXTT15=
EXTT16=
PLAYORDER=
